<svg width="94" height="85" viewBox="0 0 94 85" fill="none" xmlns="http://www.w3.org/2000/svg">
<path d="M72.7279 59.0588C84.4006 45.0667 88.3368 30.7144 81.5196 27.0022C74.7023 23.2899 59.7132 31.6234 48.0404 45.6155C36.3677 59.6076 32.4315 73.9598 39.2487 77.672C46.066 81.3843 61.0551 73.0509 72.7279 59.0588Z" fill="#303646"/>
<path d="M70.697 57.9537C82.3698 43.9616 86.7059 29.8272 80.3819 26.3835C74.058 22.9399 59.4688 31.4911 47.7961 45.4832C36.1233 59.4753 31.7872 73.6098 38.1111 77.0534C44.435 80.497 59.0242 71.9458 70.697 57.9537Z" fill="white"/>
<path d="M68.7877 56.9147C79.1046 44.5479 82.9371 32.0554 77.3479 29.0119C71.7587 25.9683 58.8643 33.5263 48.5475 45.8931C38.2306 58.2598 34.3981 70.7523 39.9873 73.7959C45.5765 76.8394 58.4709 69.2814 68.7877 56.9147Z" fill="#CD2B31"/>
<path d="M66.4133 55.6179C74.8118 45.5507 77.9316 35.381 73.3815 32.9033C68.8315 30.4256 58.3346 36.5781 49.9361 46.6454C41.5376 56.7126 38.4178 66.8823 42.9679 69.36C47.518 71.8377 58.0148 65.6852 66.4133 55.6179Z" fill="white"/>
<path d="M65.0899 54.1959C71.9159 46.022 74.4544 37.7632 70.7599 35.7493C67.0653 33.7354 58.5367 38.729 51.7107 46.9028C44.8847 55.0767 42.3461 63.3355 46.0407 65.3494C49.7352 67.3634 58.2638 62.3697 65.0899 54.1959Z" fill="#CD2B31"/>
<path d="M61.6341 53.018C66.1959 47.5498 67.8901 42.0258 65.4183 40.6798C62.9465 39.3337 57.2445 42.6755 52.6827 48.1437C48.1209 53.6119 46.4267 59.1359 48.8985 60.4819C51.3704 61.828 57.0722 58.4863 61.6341 53.018Z" fill="white"/>
<path d="M60.2521 51.5596C62.5546 48.8025 63.4105 46.0164 62.1638 45.3368C60.9172 44.6573 58.0399 46.3415 55.7374 49.0987C53.4349 51.8558 52.579 54.6418 53.8257 55.3214C55.0724 56.001 57.9496 54.3168 60.2521 51.5596Z" fill="#CD2B31"/>
<path d="M54.865 45.5527C53.7191 46.1977 50.373 47.8796 50.2813 48.2808C50.1896 48.682 53.6924 48.6975 54.1011 48.071C54.5098 47.4445 54.865 45.5527 54.865 45.5527Z" fill="#BAB3B4"/>
<path d="M4.02745 9.07831C4.36741 9.05671 8.47365 8.89006 9.25288 9.24496C9.77149 9.51197 10.1985 9.88027 10.4943 10.3158C7.73261 10.6985 6.02901 10.9331 5.12372 10.1708C4.65389 9.77268 4.28716 9.49802 4.08853 9.3252C3.8899 9.15238 3.8632 9.09065 4.02745 9.07831Z" fill="white"/>
<path opacity="0.09" d="M4.02748 9.07831C4.36744 9.05671 8.47368 8.89006 9.25292 9.24496C8.87094 9.58134 5.2154 10.143 4.08857 9.3252C3.90904 9.16473 3.86323 9.09065 4.02748 9.07831Z" fill="#1F1F39"/>
<path d="M2.84701 8.02593C3.18315 8.00124 7.29325 7.83768 8.06867 8.18949C8.59684 8.46601 9.02826 8.8475 9.32157 9.2974C6.55986 9.68007 4.84475 9.89302 3.93946 9.11841C3.47345 8.71722 3.10677 8.44564 2.90814 8.27282C2.70951 8.1 2.68276 8.03519 2.84701 8.02593Z" fill="white"/>
<path opacity="0.09" d="M2.84724 8.02596C3.18338 8.00127 7.29348 7.83771 8.0689 8.18952C7.68692 8.52591 5.60132 9.02894 2.90837 8.27285C2.7212 8.11238 2.68299 8.03522 2.84724 8.02596Z" fill="#1F1F39"/>
<path d="M1.52526 6.79431C2.16923 6.91713 2.83361 6.95465 3.49246 6.90541H3.51918C4.90576 6.819 6.35731 6.78197 6.74692 6.95787C7.30795 7.27391 7.76226 7.69826 8.06855 8.19231C5.30685 8.57807 3.52301 8.66448 2.61772 7.8837C2.1517 7.48251 1.78502 7.21094 1.58639 7.03812L1.52526 6.98256C1.39157 6.8622 1.38011 6.80357 1.52526 6.79431Z" fill="white"/>
<path opacity="0.09" d="M1.52526 6.79431C2.16923 6.91713 2.83361 6.95465 3.49246 6.90541H3.51918C4.9325 6.83443 6.39932 6.81283 6.78894 6.98874C6.40696 7.32512 3.7331 7.58126 1.62458 7.07206L1.52526 6.98565C1.39157 6.8622 1.38011 6.80357 1.52526 6.79431Z" fill="#1F1F39"/>
<path d="M0.207623 5.5848C0.547583 5.5632 4.65382 5.39655 5.43306 5.74836C5.9867 6.05893 6.43786 6.47427 6.74709 6.95811C3.98539 7.34079 2.20537 7.45189 1.3039 6.67728C0.834065 6.27917 0.467334 6.00452 0.268706 5.8317C0.070077 5.65887 0.0433721 5.59406 0.207623 5.5848Z" fill="white"/>
<path opacity="0.23" d="M0.207658 5.58474C0.547619 5.56314 4.65386 5.39649 5.43309 5.7483C5.05112 6.08469 2.28941 5.67733 0.268741 5.83163C0.0892112 5.67116 0.0434073 5.594 0.207658 5.58474Z" fill="#1F1F39"/>
<path d="M4.608 4.73596C4.62562 4.95041 4.714 5.15714 4.86394 5.33466C5.7043 6.44565 52.4279 48.4596 52.5081 48.6664C52.5081 48.6973 52.573 48.7127 52.6571 48.7158C52.7744 48.7194 52.8918 48.7079 53.0047 48.6818C53.57 48.5707 54.353 48.1942 53.887 47.5739C53.8454 47.5174 53.7982 47.4637 53.7457 47.4135C53.7457 47.4135 7.60271 4.66807 6.51407 4.29465C5.6508 3.99839 4.59654 4.12492 4.608 4.73596Z" fill="#543237"/>
<path d="M11.0977 3.95841C11.0289 4.2269 10.3337 7.50124 10.6737 8.16784C10.9396 8.6169 11.3417 9.00437 11.8426 9.29426C12.6447 7.134 13.1489 5.78538 12.3086 4.97374C11.8731 4.55094 11.5828 4.22382 11.3918 4.04791C11.2008 3.87201 11.1282 3.82571 11.0977 3.95841Z" fill="white"/>
<path opacity="0.09" d="M11.0977 3.95831C11.0289 4.2268 10.3337 7.50115 10.6737 8.16774C11.1321 7.90851 12.2627 5.03536 11.3918 4.03856C11.2161 3.86573 11.1282 3.82561 11.0977 3.95831Z" fill="#1F1F39"/>
<path d="M9.94439 2.88141C9.87563 3.1499 9.18039 6.42423 9.52035 7.09082C9.79696 7.54691 10.2139 7.93795 10.7312 8.2265C11.5334 6.06624 11.9994 4.70837 11.1552 3.89055C10.7198 3.46776 10.4295 3.14063 10.2385 2.96473C10.0475 2.78882 9.97495 2.75179 9.94439 2.88141Z" fill="white"/>
<path opacity="0.09" d="M9.94439 2.8814C9.87563 3.14989 9.18039 6.42422 9.52035 7.09082C9.97873 6.83159 10.8458 5.21139 10.2385 2.95855C10.0628 2.7919 9.97495 2.75178 9.94439 2.8814Z" fill="#1F1F39"/>
<path d="M8.58822 1.67473C8.66418 2.20517 8.63192 2.74207 8.49273 3.26407C8.49273 3.26407 8.49273 3.27949 8.49273 3.28875C8.22152 4.3874 7.99999 5.54777 8.17188 5.88415C8.49279 6.37114 8.95881 6.78585 9.52787 7.09081C10.33 4.93055 10.6509 3.50169 9.80671 2.68388C9.37125 2.258 9.08099 1.93088 8.89382 1.75805L8.83269 1.70251C8.68754 1.57598 8.61878 1.55746 8.58822 1.67473Z" fill="white"/>
<path opacity="0.09" d="M8.58836 1.67452C8.66432 2.20495 8.63206 2.74186 8.49286 3.26386C8.49286 3.26386 8.49286 3.27928 8.49286 3.28854C8.23694 4.41188 8.03449 5.5846 8.20638 5.91789C8.66475 5.65866 9.29884 3.53543 8.9245 1.78871L8.83283 1.69613C8.68768 1.57577 8.61892 1.55725 8.58836 1.67452Z" fill="#1F1F39"/>
<path d="M7.25901 0.471158C7.19025 0.742734 6.49506 4.01707 6.83884 4.68057C7.15194 5.16344 7.6071 5.57675 8.16429 5.88415C8.96645 3.72389 9.3102 2.29812 8.47367 1.4803C8.03822 1.05751 7.74795 0.730386 7.55696 0.554479C7.36597 0.378572 7.29338 0.341543 7.25901 0.471158Z" fill="white"/>
<path opacity="0.23" d="M7.25901 0.471168C7.19025 0.742743 6.49506 4.01708 6.83884 4.68059C7.29721 4.42135 7.12533 2.15308 7.55696 0.551399C7.38125 0.381665 7.29338 0.341552 7.25901 0.471168Z" fill="#1F1F39"/>
<path opacity="0.47" d="M4.60791 4.7359C4.62553 4.95035 4.71391 5.15708 4.86385 5.3346C5.7042 6.44559 52.4278 48.4596 52.508 48.6664C52.5309 48.7281 52.7448 48.7343 53.0046 48.6818C47.6072 43.5589 9.0083 8.49476 4.60791 4.7359Z" fill="#1F1F39"/>
<path d="M50.071 48.4227C49.7998 48.972 56.6793 51.7988 57.3668 51.6229H57.3936C57.9169 51.3606 55.2583 45.5835 54.8649 45.5619C54.4714 45.5403 53.6808 47.1481 52.8671 47.79H52.848C52.0382 48.4165 50.2582 48.0338 50.071 48.4227Z" fill="white"/>
<path opacity="0.22" d="M50.071 48.4226C49.7998 48.972 56.6793 51.7988 57.3668 51.6229C55.7358 49.7404 53.9787 48.3424 52.848 47.7931C52.0382 48.4165 50.2582 48.0338 50.071 48.4226Z" fill="#1F1F39"/>
</svg>
